<svg width="311" height="281" viewBox="0 0 311 281" fill="none" xmlns="http://www.w3.org/2000/svg">
<g clip-path="url(#clip0_8_6078)">
<path d="M298.463 111.087C298.463 159.702 267.236 201.021 223.744 216.082C206.238 222.11 187.509 223.696 169.238 220.697C167.504 220.415 165.782 220.089 164.073 219.722C161.757 219.23 159.468 218.664 157.207 218.025C110.514 204.883 76.2902 161.981 76.2902 111.087C76.2902 49.7348 126.025 0 187.377 0C248.728 0 298.463 49.7348 298.463 111.087Z" fill="#E6E6E6"/>
<path d="M117.799 145.373C117.604 145.477 117.458 145.655 117.393 145.868C117.329 146.08 117.351 146.309 117.455 146.505L159.221 224.732C159.326 224.928 159.504 225.074 159.716 225.139C159.928 225.203 160.157 225.181 160.353 225.076L219.393 193.555C219.588 193.451 219.734 193.273 219.799 193.06C219.863 192.848 219.841 192.619 219.737 192.423L177.971 114.196C177.866 114 177.688 113.854 177.476 113.789C177.264 113.725 177.035 113.747 176.839 113.852L117.799 145.373Z" fill="#3F3D56"/>
<path d="M123.287 147.659L161.507 219.244L213.905 191.269L175.685 119.684L123.287 147.659ZM119.967 149.431L119.974 149.427L119.966 149.432L119.967 149.431Z" fill="white"/>
<path d="M136.499 155.529C135.685 155.963 135.511 157.232 136.112 158.357C136.712 159.481 137.863 160.043 138.677 159.608L177.053 139.12C177.867 138.685 178.04 137.416 177.439 136.292C176.839 135.167 175.688 134.605 174.874 135.04L136.499 155.529Z" fill="#006FFD"/>
<path d="M141.227 164.385C140.413 164.819 140.239 166.088 140.84 167.213C141.44 168.337 142.591 168.899 143.405 168.464L181.781 147.975C182.595 147.541 182.768 146.272 182.168 145.148C181.567 144.023 180.417 143.461 179.603 143.896L141.227 164.385Z" fill="#006FFD"/>
<path d="M145.955 173.241C145.141 173.675 144.968 174.944 145.568 176.068C146.168 177.193 147.319 177.755 148.133 177.32L186.509 156.831C187.323 156.397 187.496 155.128 186.896 154.004C186.295 152.879 185.145 152.317 184.331 152.752L145.955 173.241Z" fill="#006FFD"/>
<path d="M150.683 182.097C149.869 182.531 149.696 183.8 150.296 184.924C150.897 186.049 152.047 186.611 152.861 186.176L191.237 165.687C192.051 165.253 192.224 163.984 191.624 162.86C191.024 161.735 189.873 161.173 189.059 161.608L150.683 182.097Z" fill="#006FFD"/>
<path d="M155.411 190.953C154.597 191.387 154.424 192.656 155.024 193.78C155.625 194.905 156.775 195.467 157.589 195.032L195.965 174.543C196.779 174.109 196.953 172.84 196.352 171.716C195.752 170.591 194.601 170.029 193.787 170.464L155.411 190.953Z" fill="#006FFD"/>
<path d="M162.864 111.576L197.636 113.699L207.375 84.6573L176.875 78.2131L162.864 111.576Z" fill="#2F2E41"/>
<path d="M187.942 104.232C195.622 104.232 201.849 98.0054 201.849 90.3246C201.849 82.6439 195.622 76.4174 187.942 76.4174C180.261 76.4174 174.034 82.6439 174.034 90.3246C174.034 98.0054 180.261 104.232 187.942 104.232Z" fill="#FFB8B8"/>
<path d="M223.654 215L223.744 216.082C206.238 222.11 187.509 223.696 169.238 220.697L164.073 219.722L168.988 208.822L172.21 201.677L171.05 176.96L170.927 174.402L170.775 171.139L172.874 171.127L187.795 171.036L202.015 170.946L204.183 170.934C217.78 187.658 228.999 201.251 223.654 215Z" fill="#2F2E41"/>
<path d="M203.978 170.729L170.775 174.418L169.545 151.463C165.649 141.525 168.221 132.654 176.308 124.694L177.952 118.187C178.384 116.478 179.275 114.921 180.53 113.685C181.785 112.448 183.355 111.579 185.069 111.172C190.504 108.055 196.66 106.569 203.568 106.782C206.327 107.86 208.666 109.796 210.24 112.304C211.814 114.813 212.54 117.761 212.309 120.714C210.881 138.754 208.316 155.641 203.978 170.729Z" fill="#006FFD"/>
<path d="M177.421 73.8933C177.421 73.8933 170.23 76.5175 170.045 86.0582C170.035 87.6636 170.249 89.2626 170.682 90.8087C171.148 92.5622 171.522 96.3667 168.387 101.438C166.338 104.73 164.486 108.14 162.839 111.651L170.936 112.432L172.275 99.0095C172.924 92.502 174.528 86.1254 177.035 80.0851L177.087 79.959C177.087 79.959 180.802 86.4152 187.862 86.2164L185.269 83.766C185.269 83.766 194.112 87.096 198.92 87.7645C199.469 87.841 199.987 88.0656 200.417 88.4144C200.848 88.7631 201.175 89.2227 201.364 89.7436C201.552 90.2646 201.595 90.8271 201.488 91.3707C201.381 91.9142 201.127 92.4182 200.754 92.8283C200.726 92.8591 200.697 92.8901 200.668 92.9212C197.727 96.0322 191.875 103.263 195.561 108.71C199.247 114.158 196.264 115.756 196.264 115.756L201.726 112.574L204.205 110.99L204.262 113.007L217.331 111.125C217.331 111.125 220.846 110.521 213.041 102.162C213.041 102.162 210.949 98.8888 211.742 95.9929C212.399 93.7905 212.522 91.4635 212.102 89.2041C210.141 79.7981 202.963 61.1903 177.421 73.8933Z" fill="#2F2E41"/>
<path d="M187.377 279.216C214.996 279.216 237.386 277.931 237.386 276.346C237.386 274.761 214.996 273.477 187.377 273.477C159.757 273.477 137.367 274.761 137.367 276.346C137.367 277.931 159.757 279.216 187.377 279.216Z" fill="#E6E6E6"/>
<path d="M0.304394 132.21C0.199402 132.239 0.109841 132.307 0.0553663 132.401C0.000891622 132.495 -0.0140495 132.607 0.0138283 132.712L11.2004 174.698C11.2285 174.803 11.2971 174.893 11.3911 174.947C11.4852 175.002 11.597 175.017 11.7021 174.989L43.3897 166.546C43.4947 166.518 43.5842 166.449 43.6387 166.355C43.6932 166.261 43.7081 166.149 43.6802 166.044L32.4937 124.058C32.4656 123.953 32.397 123.864 32.3029 123.809C32.2089 123.755 32.0971 123.74 31.992 123.768L0.304394 132.21Z" fill="#F2F2F2"/>
<path d="M8.09086 139.145C7.65396 139.261 7.42956 139.847 7.59035 140.45C7.75114 141.054 8.23732 141.45 8.67422 141.334L29.2712 135.846C29.7081 135.73 29.9325 135.144 29.7717 134.541C29.6109 133.937 29.1247 133.54 28.6878 133.657L8.09086 139.145Z" fill="white"/>
<path d="M9.35728 143.898C8.92038 144.014 8.69597 144.6 8.85677 145.204C9.01757 145.807 9.50374 146.204 9.94064 146.087L30.5376 140.599C30.9745 140.483 31.1989 139.897 31.0381 139.294C30.8773 138.69 30.3911 138.293 29.9542 138.41L9.35728 143.898Z" fill="white"/>
<path d="M10.6237 148.651C10.1868 148.767 9.96238 149.353 10.1232 149.957C10.284 150.56 10.7701 150.957 11.207 150.84L31.804 145.353C32.2409 145.236 32.4653 144.65 32.3045 144.047C32.1437 143.443 31.6576 143.047 31.2206 143.163L10.6237 148.651Z" fill="white"/>
<path d="M11.8901 153.404C11.4532 153.52 11.2288 154.106 11.3896 154.71C11.5504 155.313 12.0365 155.71 12.4734 155.594L33.0704 150.106C33.5073 149.989 33.7317 149.403 33.5709 148.8C33.4101 148.196 32.9239 147.8 32.487 147.916L11.8901 153.404Z" fill="white"/>
<path d="M13.1565 158.157C12.7196 158.274 12.4952 158.859 12.656 159.463C12.8168 160.066 13.303 160.463 13.7399 160.347L34.3368 154.859C34.7737 154.742 34.9981 154.157 34.8373 153.553C34.6765 152.95 34.1904 152.553 33.7534 152.669L13.1565 158.157Z" fill="white"/>
<path d="M14.4229 162.91C13.986 163.027 13.7616 163.613 13.9224 164.216C14.0832 164.82 14.5694 165.216 15.0063 165.1L35.6032 159.612C36.0401 159.496 36.2645 158.91 36.1037 158.306C35.9429 157.703 35.4568 157.306 35.0198 157.423L14.4229 162.91Z" fill="white"/>
<path d="M81.2844 280.145C81.2844 280.198 81.4681 280.24 81.6943 280.24H125.145C125.371 280.24 125.555 280.198 125.555 280.145V272.547C125.555 272.495 125.371 272.452 125.145 272.452H81.6943C81.4681 272.452 81.2844 272.495 81.2844 272.547V280.145Z" fill="#F2F2F2"/>
<path d="M89.9894 278.816C89.9894 278.92 90.4978 279.006 91.1223 279.006C91.7469 279.006 92.2553 278.92 92.2553 278.816V273.877C92.2553 273.772 91.7469 273.687 91.1223 273.687C90.4978 273.687 89.9894 273.772 89.9894 273.877V278.816Z" fill="white"/>
<path d="M94.9083 278.816C94.9083 278.92 95.4167 279.006 96.0413 279.006C96.6659 279.006 97.1742 278.92 97.1742 278.816V273.877C97.1742 273.772 96.6659 273.687 96.0413 273.687C95.4167 273.687 94.9083 273.772 94.9083 273.877V278.816Z" fill="white"/>
<path d="M99.8273 278.816C99.8273 278.92 100.336 279.006 100.96 279.006C101.585 279.006 102.093 278.92 102.093 278.816V273.877C102.093 273.772 101.585 273.687 100.96 273.687C100.336 273.687 99.8273 273.772 99.8273 273.877V278.816Z" fill="white"/>
<path d="M104.746 278.816C104.746 278.92 105.255 279.006 105.879 279.006C106.504 279.006 107.012 278.92 107.012 278.816V273.877C107.012 273.772 106.504 273.687 105.879 273.687C105.255 273.687 104.746 273.772 104.746 273.877V278.816Z" fill="white"/>
<path d="M109.665 278.816C109.665 278.92 110.174 279.006 110.798 279.006C111.423 279.006 111.931 278.92 111.931 278.816V273.877C111.931 273.772 111.423 273.687 110.798 273.687C110.174 273.687 109.665 273.772 109.665 273.877V278.816Z" fill="white"/>
<path d="M114.584 278.816C114.584 278.92 115.093 279.006 115.717 279.006C116.342 279.006 116.85 278.92 116.85 278.816V273.877C116.85 273.772 116.342 273.687 115.717 273.687C115.093 273.687 114.584 273.772 114.584 273.877V278.816Z" fill="white"/>
<path d="M1.46675 101.912C1.37092 101.963 1.29936 102.05 1.26776 102.154C1.23616 102.258 1.24711 102.37 1.2982 102.466L21.7625 140.796C21.8138 140.892 21.901 140.964 22.005 140.995C22.1089 141.027 22.2212 141.016 22.3171 140.965L51.2454 125.52C51.3412 125.469 51.4128 125.382 51.4444 125.278C51.476 125.174 51.4651 125.061 51.414 124.965L30.9497 86.6354C30.8984 86.5396 30.8112 86.468 30.7072 86.4364C30.6032 86.4048 30.4909 86.4158 30.395 86.4669L1.46675 101.912Z" fill="#E6E6E6"/>
<path d="M4.15572 103.032L22.8826 138.107L48.5565 124.4L29.8296 89.3244L4.15572 103.032ZM2.52888 103.9L2.53248 103.898L2.52848 103.9L2.52888 103.9Z" fill="white"/>
<path d="M10.629 106.888C10.2302 107.101 10.1453 107.722 10.4394 108.273C10.7336 108.824 11.2974 109.1 11.6962 108.887L30.4996 98.8476C30.8984 98.6346 30.9834 98.013 30.6892 97.462C30.395 96.9111 29.8312 96.6358 29.4324 96.8487L10.629 106.888Z" fill="#006FFD"/>
<path d="M12.9457 111.227C12.5469 111.44 12.462 112.062 12.7561 112.613C13.0503 113.164 13.6141 113.439 14.0129 113.226L32.8163 103.187C33.2151 102.974 33.3001 102.352 33.0059 101.801C32.7117 101.25 32.148 100.975 31.7491 101.188L12.9457 111.227Z" fill="#006FFD"/>
<path d="M15.2625 115.566C14.8636 115.779 14.7787 116.401 15.0728 116.952C15.367 117.503 15.9308 117.778 16.3296 117.565L35.133 107.526C35.5319 107.313 35.6168 106.692 35.3227 106.141C35.0285 105.59 34.4647 105.314 34.0659 105.527L15.2625 115.566Z" fill="#006FFD"/>
<path d="M17.5792 119.906C17.1803 120.118 17.0954 120.74 17.3896 121.291C17.6837 121.842 18.2475 122.117 18.6463 121.904L37.4497 111.865C37.8486 111.652 37.9335 111.031 37.6393 110.48C37.3452 109.929 36.7814 109.654 36.3825 109.866L17.5792 119.906Z" fill="#006FFD"/>
<path d="M19.8959 124.245C19.497 124.458 19.4121 125.079 19.7063 125.63C20.0004 126.181 20.5642 126.457 20.9631 126.244L39.7664 116.205C40.1653 115.992 40.2502 115.37 39.9561 114.819C39.6619 114.268 39.0981 113.993 38.6993 114.206L19.8959 124.245Z" fill="#006FFD"/>
<path d="M22.2126 128.584C21.8137 128.797 21.7288 129.419 22.023 129.97C22.3171 130.521 22.8809 130.796 23.2798 130.583L42.0831 120.544C42.482 120.331 42.5669 119.709 42.2728 119.158C41.9786 118.607 41.4148 118.332 41.016 118.545L22.2126 128.584Z" fill="#006FFD"/>
<path d="M282.567 199.863C282.473 199.808 282.361 199.792 282.256 199.82C282.151 199.847 282.061 199.914 282.005 200.008L259.9 237.415C259.844 237.509 259.829 237.621 259.856 237.726C259.883 237.831 259.95 237.921 260.044 237.977L288.276 254.66C288.37 254.715 288.481 254.731 288.587 254.704C288.692 254.677 288.782 254.609 288.837 254.516L310.943 217.108C310.998 217.015 311.014 216.903 310.987 216.798C310.96 216.693 310.892 216.602 310.799 216.547L282.567 199.863Z" fill="#E6E6E6"/>
<path d="M283.008 202.743L262.779 236.974L287.835 251.781L308.064 217.549L283.008 202.743ZM281.42 201.805L281.424 201.807L281.42 201.804L281.42 201.805Z" fill="white"/>
<path d="M283.079 210.277C282.689 210.047 282.114 210.298 281.796 210.836C281.479 211.373 281.537 211.998 281.926 212.228L300.277 223.072C300.666 223.302 301.241 223.052 301.559 222.514C301.877 221.976 301.819 221.352 301.429 221.122L283.079 210.277Z" fill="#006FFD"/>
<path d="M280.576 214.512C280.187 214.282 279.612 214.533 279.294 215.07C278.976 215.608 279.034 216.233 279.423 216.463L297.774 227.307C298.163 227.537 298.739 227.287 299.056 226.749C299.374 226.211 299.316 225.586 298.927 225.356L280.576 214.512Z" fill="#006FFD"/>
<path d="M278.074 218.747C277.684 218.517 277.109 218.767 276.791 219.305C276.474 219.843 276.532 220.468 276.921 220.698L295.272 231.542C295.661 231.772 296.236 231.521 296.554 230.984C296.872 230.446 296.814 229.821 296.424 229.591L278.074 218.747Z" fill="#006FFD"/>
<path d="M275.571 222.982C275.182 222.752 274.607 223.002 274.289 223.54C273.971 224.078 274.029 224.702 274.418 224.932L292.769 235.777C293.158 236.007 293.733 235.756 294.051 235.218C294.369 234.681 294.311 234.056 293.922 233.826L275.571 222.982Z" fill="#006FFD"/>
<path d="M273.069 227.216C272.679 226.986 272.104 227.237 271.786 227.775C271.469 228.312 271.526 228.937 271.916 229.167L290.267 240.011C290.656 240.242 291.231 239.991 291.549 239.453C291.866 238.915 291.809 238.291 291.419 238.061L273.069 227.216Z" fill="#006FFD"/>
<path d="M270.566 231.451C270.177 231.221 269.602 231.472 269.284 232.01C268.966 232.547 269.024 233.172 269.413 233.402L287.764 244.246C288.153 244.476 288.728 244.226 289.046 243.688C289.364 243.15 289.306 242.526 288.917 242.296L270.566 231.451Z" fill="#006FFD"/>
<path d="M180.613 131.787L180.187 134.427L175.694 162.121L172.874 171.127L171.882 174.295L171.05 176.96L160.937 209.261L158.163 215.779C156.64 216.343 155.332 217.367 154.421 218.711C153.509 220.054 153.041 221.648 153.08 223.271C153.119 224.894 153.665 226.463 154.64 227.761C155.615 229.058 156.972 230.018 158.52 230.507C160.067 230.996 161.729 230.989 163.273 230.486C164.816 229.984 166.164 229.012 167.128 227.706C168.092 226.4 168.624 224.826 168.649 223.203C168.674 221.58 168.191 219.989 167.268 218.654L187.061 172.61L187.795 171.036L190.041 166.22L194.284 134.21L194.55 132.197L180.613 131.787Z" fill="#FFB8B8"/>
<path d="M197.01 135.066C190.568 132.751 184.388 132.505 178.564 135.066L180.465 118.59C180.395 116.532 181.135 114.53 182.527 113.012C183.918 111.495 185.849 110.584 187.905 110.476C189.987 110.367 192.026 111.088 193.575 112.483C195.125 113.877 196.056 115.829 196.166 117.911L196.167 117.938L197.01 135.066Z" fill="#006FFD"/>
</g>
<defs>
<clipPath id="clip0_8_6078">
<rect width="311" height="280.24" fill="white"/>
</clipPath>
</defs>
</svg>
