<svg width="311" height="241" viewBox="0 0 311 241" fill="none" xmlns="http://www.w3.org/2000/svg">
<g clip-path="url(#clip0_8_5892)">
<path d="M50.8561 239.97C50.8561 240.309 51.0421 240.582 51.2737 240.582H259.546C259.78 240.582 259.964 240.31 259.964 239.97C259.964 239.63 259.778 239.358 259.546 239.358H51.2737C51.0421 239.358 50.8561 239.63 50.8561 239.97Z" fill="#CCCCCC"/>
<path d="M126.212 237.952H118.776V239.264H126.212V237.952Z" fill="#B6B3C5"/>
<path d="M192.042 238.17H184.606V239.483H192.042V238.17Z" fill="#B6B3C5"/>
<path d="M166.071 179.557C165.657 182.062 164.367 184.338 162.431 185.981C160.495 187.623 158.039 188.524 155.5 188.524C152.961 188.524 150.505 187.623 148.569 185.981C146.633 184.338 145.343 182.062 144.929 179.557H117.882V238.17H193.119V179.557H166.071Z" fill="#D6D6E3"/>
<path d="M193.336 233.526H118.101V235.566H193.336V233.526Z" fill="#090814"/>
<path d="M306.806 181.089H4.19425C3.08225 181.088 2.01614 180.645 1.22983 179.859C0.443526 179.073 0.00123625 178.007 0 176.895L0 4.19464C0.00113324 3.08257 0.443378 2.01636 1.2297 1.22997C2.01601 0.44358 3.08218 0.00123643 4.19425 0H306.806C307.918 0.00133905 308.984 0.443662 309.77 1.22995C310.556 2.01623 310.999 3.08228 311 4.19425V176.895C310.999 178.007 310.556 179.073 309.77 179.859C308.984 180.645 307.918 181.087 306.806 181.089Z" fill="#090814"/>
<path d="M303.736 6.99742H7.60809V174.089H303.736V6.99742Z" fill="white"/>
<path d="M258.814 150.263H52.1872C51.6556 150.263 51.146 150.051 50.7701 149.675C50.3942 149.3 50.1828 148.79 50.1823 148.258V26.1C50.1828 25.5685 50.3942 25.0588 50.7701 24.6829C51.146 24.3071 51.6556 24.0957 52.1872 24.0951H258.814C259.345 24.0957 259.855 24.3071 260.231 24.6829C260.607 25.0588 260.818 25.5685 260.818 26.1V148.258C260.818 148.79 260.607 149.3 260.231 149.675C259.855 150.051 259.345 150.263 258.814 150.263ZM52.1872 24.8973C51.8683 24.8977 51.5627 25.0246 51.3372 25.25C51.1117 25.4755 50.9849 25.7812 50.9845 26.1V148.258C50.9849 148.577 51.1117 148.883 51.3372 149.108C51.5627 149.334 51.8683 149.461 52.1872 149.461H258.814C259.132 149.461 259.438 149.334 259.664 149.108C259.889 148.883 260.016 148.577 260.016 148.258V26.1C260.016 25.7812 259.889 25.4755 259.664 25.25C259.438 25.0246 259.132 24.8977 258.814 24.8973H52.1872Z" fill="#E6E6E6"/>
<path d="M135.583 33.8518C135.161 33.8518 134.757 34.0192 134.459 34.3173C134.161 34.6154 133.993 35.0198 133.993 35.4413C133.993 35.8629 134.161 36.2672 134.459 36.5653C134.757 36.8634 135.161 37.0309 135.583 37.0309H175.434C175.856 37.0384 176.263 36.8782 176.566 36.5855C176.87 36.2927 177.044 35.8915 177.052 35.4699C177.059 35.0484 176.899 34.6412 176.607 34.3378C176.314 34.0344 175.913 33.8597 175.491 33.8521L135.583 33.8518Z" fill="#006FFD"/>
<path d="M184.471 33.4092C184.442 33.4382 184.419 33.4726 184.403 33.5106C184.388 33.5485 184.379 33.5892 184.379 33.6303C184.379 33.6714 184.388 33.7121 184.403 33.75C184.419 33.788 184.442 33.8224 184.471 33.8514L185.814 35.1942H182.505C182.422 35.1942 182.342 35.2271 182.284 35.2858C182.225 35.3444 182.192 35.424 182.192 35.5069C182.192 35.5899 182.225 35.6694 182.284 35.7281C182.342 35.7867 182.422 35.8197 182.505 35.8197H185.813L184.47 37.1625C184.412 37.2211 184.379 37.3006 184.379 37.3836C184.379 37.4665 184.412 37.546 184.47 37.6046C184.529 37.6633 184.608 37.6962 184.691 37.6962C184.774 37.6962 184.854 37.6633 184.912 37.6046L186.789 35.7282C186.818 35.6993 186.841 35.6648 186.857 35.6269C186.873 35.5889 186.881 35.5482 186.881 35.5071C186.881 35.466 186.873 35.4253 186.857 35.3874C186.841 35.3494 186.818 35.315 186.789 35.286L184.912 33.4096C184.884 33.3804 184.849 33.3573 184.811 33.3415C184.773 33.3256 184.733 33.3175 184.691 33.3175C184.65 33.3175 184.61 33.3256 184.572 33.3415C184.534 33.3573 184.499 33.3804 184.47 33.4096L184.471 33.4092Z" fill="#E6E6E6"/>
<path d="M126.53 33.4092C126.559 33.4382 126.582 33.4726 126.598 33.5106C126.614 33.5485 126.622 33.5892 126.622 33.6303C126.622 33.6714 126.614 33.7121 126.598 33.75C126.582 33.788 126.559 33.8224 126.53 33.8514L125.187 35.1942H128.498C128.581 35.1942 128.66 35.2271 128.719 35.2858C128.778 35.3444 128.811 35.424 128.811 35.5069C128.811 35.5899 128.778 35.6694 128.719 35.7281C128.66 35.7867 128.581 35.8197 128.498 35.8197H125.186L126.529 37.1625C126.588 37.2211 126.621 37.3006 126.621 37.3836C126.621 37.4665 126.588 37.546 126.529 37.6046C126.471 37.6633 126.391 37.6962 126.308 37.6962C126.225 37.6962 126.146 37.6633 126.087 37.6046L124.211 35.7282C124.182 35.6993 124.158 35.6648 124.143 35.6269C124.127 35.5889 124.119 35.5482 124.119 35.5071C124.119 35.466 124.127 35.4253 124.143 35.3874C124.158 35.3494 124.182 35.315 124.211 35.286L126.087 33.4096C126.116 33.3804 126.151 33.3573 126.188 33.3415C126.226 33.3256 126.267 33.3175 126.308 33.3175C126.349 33.3175 126.39 33.3256 126.428 33.3415C126.466 33.3573 126.5 33.3804 126.529 33.4096L126.53 33.4092Z" fill="#E6E6E6"/>
<path d="M259.964 159.424C258.152 159.424 256.381 158.887 254.874 157.88C253.368 156.874 252.193 155.443 251.5 153.769C250.807 152.095 250.625 150.253 250.979 148.476C251.332 146.699 252.205 145.067 253.486 143.785C254.767 142.504 256.399 141.632 258.176 141.278C259.954 140.925 261.796 141.106 263.47 141.799C265.144 142.493 266.574 143.667 267.581 145.174C268.588 146.68 269.125 148.451 269.125 150.263C269.125 152.693 268.16 155.023 266.442 156.741C264.724 158.459 262.393 159.424 259.964 159.424Z" fill="#006FFD"/>
<path d="M263.578 149.359H260.867V146.649C260.867 146.409 260.772 146.179 260.602 146.009C260.433 145.84 260.203 145.745 259.963 145.745C259.724 145.745 259.494 145.84 259.324 146.009C259.155 146.179 259.06 146.409 259.06 146.649V149.359H256.349C256.109 149.359 255.879 149.455 255.71 149.624C255.54 149.794 255.445 150.024 255.445 150.263C255.445 150.503 255.54 150.733 255.71 150.902C255.879 151.072 256.109 151.167 256.349 151.167H259.061V153.879C259.061 154.119 259.156 154.349 259.326 154.519C259.495 154.688 259.725 154.783 259.965 154.783C260.205 154.783 260.434 154.688 260.604 154.519C260.773 154.349 260.869 154.119 260.869 153.879V151.167H263.58C263.819 151.167 264.049 151.071 264.219 150.902C264.388 150.732 264.483 150.503 264.483 150.263C264.483 150.023 264.388 149.793 264.219 149.624C264.049 149.454 263.819 149.359 263.58 149.359L263.578 149.359Z" fill="white"/>
<path d="M94.4212 50.1243H66.8889V68.8358H94.4212V50.1243Z" fill="#F1F1F1"/>
<path d="M131.844 50.1243H104.311V68.8358H131.844V50.1243Z" fill="#F1F1F1"/>
<path d="M169.267 50.1243H141.735V68.8358H169.267V50.1243Z" fill="#F1F1F1"/>
<path d="M206.689 50.1243H179.157V68.8358H206.689V50.1243Z" fill="#F1F1F1"/>
<path d="M244.112 50.1243H216.579V68.8358H244.112V50.1243Z" fill="#F1F1F1"/>
<path d="M94.522 83.0027H66.9897V101.714H94.522V83.0027Z" fill="#F1F1F1"/>
<path d="M131.945 83.0027H104.412V101.714H131.945V83.0027Z" fill="#F1F1F1"/>
<path d="M169.367 83.0027H141.835V101.714H169.367V83.0027Z" fill="#F1F1F1"/>
<path d="M206.79 83.0027H179.258V101.714H206.79V83.0027Z" fill="#F1F1F1"/>
<path d="M244.213 83.0027H216.68V101.714H244.213V83.0027Z" fill="#F1F1F1"/>
<path d="M94.6228 115.881H67.0905V134.592H94.6228V115.881Z" fill="#F1F1F1"/>
<path d="M132.046 115.881H104.513V134.592H132.046V115.881Z" fill="#F1F1F1"/>
<path d="M169.469 115.881H141.936V134.592H169.469V115.881Z" fill="#F1F1F1"/>
<path d="M206.891 115.881H179.359V134.592H206.891V115.881Z" fill="#F1F1F1"/>
<path d="M244.313 115.881H216.781V134.592H244.313V115.881Z" fill="#F1F1F1"/>
<path d="M147.448 59.48C149.368 59.48 150.923 57.9242 150.923 56.0051C150.923 54.0859 149.368 52.5301 147.448 52.5301C145.529 52.5301 143.973 54.0859 143.973 56.0051C143.973 57.9242 145.529 59.48 147.448 59.48Z" fill="#006FFD"/>
<path d="M109.491 92.358C111.41 92.358 112.966 90.8022 112.966 88.883C112.966 86.9638 111.41 85.4081 109.491 85.4081C107.572 85.4081 106.016 86.9638 106.016 88.883C106.016 90.8022 107.572 92.358 109.491 92.358Z" fill="#006FFD"/>
<path d="M147.448 125.237C149.368 125.237 150.923 123.681 150.923 121.762C150.923 119.843 149.368 118.287 147.448 118.287C145.529 118.287 143.973 119.843 143.973 121.762C143.973 123.681 145.529 125.237 147.448 125.237Z" fill="#006FFD"/>
<path d="M185.673 92.358C187.592 92.358 189.148 90.8022 189.148 88.883C189.148 86.9638 187.592 85.4081 185.673 85.4081C183.754 85.4081 182.198 86.9638 182.198 88.883C182.198 90.8022 183.754 92.358 185.673 92.358Z" fill="#3F3D56"/>
<path d="M222.829 92.358C224.748 92.358 226.304 90.8022 226.304 88.883C226.304 86.9638 224.748 85.4081 222.829 85.4081C220.91 85.4081 219.354 86.9638 219.354 88.883C219.354 90.8022 220.91 92.358 222.829 92.358Z" fill="#3F3D56"/>
<path d="M109.491 125.237C111.41 125.237 112.966 123.681 112.966 121.762C112.966 119.843 111.41 118.287 109.491 118.287C107.572 118.287 106.016 119.843 106.016 121.762C106.016 123.681 107.572 125.237 109.491 125.237Z" fill="#3F3D56"/>
<path d="M222.829 59.48C224.748 59.48 226.304 57.9242 226.304 56.0051C226.304 54.0859 224.748 52.5301 222.829 52.5301C220.91 52.5301 219.354 54.0859 219.354 56.0051C219.354 57.9242 220.91 59.48 222.829 59.48Z" fill="white"/>
</g>
<defs>
<clipPath id="clip0_8_5892">
<rect width="311" height="240.582" fill="white"/>
</clipPath>
</defs>
</svg>
