<svg width="311" height="243" viewBox="0 0 311 243" fill="none" xmlns="http://www.w3.org/2000/svg">
<g clip-path="url(#clip0_8_5612)">
<path d="M240.345 77.2761C238.843 72.0586 235.925 67.3595 231.914 63.7004C227.902 60.0414 222.956 57.5656 217.623 56.548C212.289 55.5304 206.779 56.0108 201.702 57.9359C196.625 59.8609 192.182 63.1553 188.864 67.4531C185.547 71.751 183.485 76.8843 182.909 82.2829C182.332 87.6815 183.263 93.1343 185.599 98.0358C187.934 102.937 191.582 107.096 196.137 110.049C200.693 113.003 205.978 114.636 211.406 114.767L216.589 116.948L209.243 144.229L247.13 151.367L262.528 111.734C262.528 111.734 240.177 112.152 234.471 104.447C237.62 100.757 239.805 96.3434 240.83 91.6018C241.855 86.8601 241.688 81.9382 240.345 77.2767L240.345 77.2761Z" fill="#ED9DA0"/>
<path d="M103.223 218.96L162.191 242.206L219.459 233.748L159.123 216.002L103.223 218.96Z" fill="#090814"/>
<path d="M159.388 204.347L215.81 176.185L224.251 186.906L167.17 219.855C165.844 224.066 162.544 228 157.812 230.374C149.533 234.529 140.034 232.342 136.596 225.49C133.158 218.638 137.082 209.716 145.361 205.562C150.093 203.188 155.219 202.892 159.389 204.347L159.388 204.347Z" fill="#ED9DA0"/>
<path d="M255.134 111.142C255.134 111.142 249.628 139.694 230.403 139.103C211.178 138.511 214.727 124.906 214.727 124.906L196.569 135.11C196.569 135.11 188.701 146.201 188.701 160.102L183.08 187.017L175.095 195.299L198.756 213.932L210.883 196.777L223.008 233.453L310.999 237.178L309.373 161.581C309.373 161.581 304.64 125.201 284.528 117.808C264.416 110.415 255.133 111.142 255.133 111.142L255.134 111.142Z" fill="#006FFD"/>
<path d="M206.191 65.4438C206.191 65.4438 194.661 75.8753 182.855 74.2292C171.05 72.5832 168.854 68.4641 168.854 66.8167C168.854 66.8167 168.854 67.3658 172.149 68.4641L173.521 56.6587C173.521 56.6587 175.169 59.7551 181.208 60.8151C181.208 60.8151 175.993 58.6355 181.208 54.3528C181.208 54.3528 183.954 56.6587 186.424 56.6587C186.424 56.6587 200.151 37.9896 227.331 49.795V44.8896L229.802 51.1676L232.99 50.8903L236.117 50.6185C236.117 50.6185 242.981 58.5804 242.431 64.0728C241.882 69.5652 252.297 97.1431 234.323 105.591C234.323 105.591 238.588 81.0945 231.175 86.8597C223.762 92.6249 219.095 83.5651 219.095 83.5651L206.192 65.4438H206.191Z" fill="#090814"/>
<path d="M204.641 211.37L267.687 210.057L270.737 231.726L205.038 228.716C202.038 231.955 197.372 234.098 192.08 234.22C182.819 234.432 175.169 228.392 174.994 220.728C174.818 213.064 182.182 206.679 191.443 206.466C196.735 206.345 201.494 208.271 204.64 211.37L204.641 211.37Z" fill="#ED9DA0"/>
<path d="M267.374 163.356C267.374 163.356 265.304 176.369 271.515 180.806C271.515 180.806 269.445 196.777 274.473 201.806C274.473 201.806 265.233 202.18 267.043 207.021C267.043 207.021 253.473 204.764 255.248 210.383C255.248 210.383 267.806 225.456 264.78 235.222L305.824 233.158L310.405 209.525" fill="#006FFD"/>
<path d="M40.8158 104.702H5.02784C3.69491 104.7 2.417 104.17 1.47444 103.228C0.531883 102.285 0.00162903 101.007 0 99.6742V45.8936C0.00145758 44.5605 0.531628 43.2825 1.4742 42.3398C2.41678 41.3972 3.69479 40.8669 5.02784 40.8654H40.8158C42.1489 40.8669 43.427 41.3971 44.3697 42.3397C45.3123 43.2824 45.8425 44.5605 45.844 45.8936V99.6742C45.8424 101.007 45.3121 102.285 44.3694 103.228C43.4268 104.17 42.1488 104.7 40.8158 104.702ZM5.02784 41.4569C3.85157 41.4582 2.72385 41.9261 1.8921 42.7578C1.06036 43.5896 0.592514 44.7173 0.591228 45.8936V99.6742C0.592686 100.85 1.06059 101.978 1.89232 102.81C2.72405 103.641 3.85168 104.109 5.02784 104.11H40.8158C41.992 104.109 43.1196 103.641 43.9513 102.81C44.7831 101.978 45.251 100.85 45.2524 99.6742V45.8936C45.2511 44.7173 44.7833 43.5896 43.9516 42.7578C43.1198 41.9261 41.9921 41.4582 40.8158 41.4569H5.02784Z" fill="#1F2024"/>
<path d="M35.3442 66.7205H10.4995C9.83302 66.7197 9.19403 66.4546 8.72275 65.9834C8.25146 65.5121 7.98637 64.8731 7.9856 64.2066V52.376C7.98637 51.7095 8.25146 51.0705 8.72275 50.5992C9.19403 50.1279 9.83302 49.8628 10.4995 49.862H35.3439C36.0104 49.8628 36.6493 50.1279 37.1206 50.5992C37.5919 51.0705 37.857 51.7095 37.8578 52.376V64.2066C37.857 64.873 37.592 65.512 37.1207 65.9832C36.6495 66.4545 36.0106 66.7197 35.3442 66.7205Z" fill="#006FFD"/>
<path d="M33.5698 77.8119H12.2744C11.6468 77.8119 11.045 77.5626 10.6012 77.1188C10.1575 76.6751 9.9082 76.0732 9.9082 75.4457C9.9082 74.8181 10.1575 74.2163 10.6012 73.7725C11.045 73.3288 11.6468 73.0795 12.2744 73.0795H33.5698C34.1973 73.0795 34.7992 73.3288 35.2429 73.7725C35.6867 74.2163 35.936 74.8181 35.936 75.4457C35.936 76.0732 35.6867 76.6751 35.2429 77.1188C34.7992 77.5626 34.1973 77.8119 33.5698 77.8119Z" fill="#CCCCCC"/>
<path d="M33.5698 86.6848H12.2744C11.6468 86.6848 11.045 86.4355 10.6012 85.9917C10.1575 85.548 9.9082 84.9461 9.9082 84.3186C9.9082 83.691 10.1575 83.0892 10.6012 82.6454C11.045 82.2017 11.6468 81.9524 12.2744 81.9524H33.5698C34.1973 81.9524 34.7992 82.2017 35.2429 82.6454C35.6867 83.0892 35.936 83.691 35.936 84.3186C35.936 84.9461 35.6867 85.548 35.2429 85.9917C34.7992 86.4355 34.1973 86.6848 33.5698 86.6848Z" fill="#CCCCCC"/>
<path d="M33.5698 95.558H12.2744C11.9637 95.558 11.656 95.4968 11.3689 95.3779C11.0818 95.259 10.821 95.0847 10.6012 94.8649C10.3815 94.6452 10.2072 94.3844 10.0883 94.0973C9.9694 93.8102 9.9082 93.5025 9.9082 93.1918C9.9082 92.8811 9.9694 92.5734 10.0883 92.2863C10.2072 91.9992 10.3815 91.7384 10.6012 91.5186C10.821 91.2989 11.0818 91.1246 11.3689 91.0057C11.656 90.8868 11.9637 90.8256 12.2744 90.8256H33.5698C33.8805 90.8256 34.1882 90.8868 34.4753 91.0057C34.7624 91.1246 35.0232 91.2989 35.2429 91.5186C35.4627 91.7384 35.637 91.9992 35.7559 92.2863C35.8748 92.5734 35.936 92.8811 35.936 93.1918C35.936 93.5025 35.8748 93.8102 35.7559 94.0973C35.637 94.3844 35.4627 94.6452 35.2429 94.8649C35.0232 95.0847 34.7624 95.259 34.4753 95.3779C34.1882 95.4968 33.8805 95.558 33.5698 95.558Z" fill="#CCCCCC"/>
<path d="M128.067 134.87H92.2792C90.9462 134.868 89.6683 134.338 88.7258 133.396C87.7832 132.453 87.253 131.175 87.2513 129.842V76.0618C87.2528 74.7288 87.783 73.4508 88.7255 72.5081C89.6681 71.5655 90.9461 71.0352 92.2792 71.0337H128.067C129.4 71.0351 130.678 71.5654 131.621 72.508C132.564 73.4507 133.094 74.7287 133.095 76.0618V129.842C133.094 131.176 132.564 132.454 131.621 133.396C130.678 134.339 129.4 134.869 128.067 134.871V134.87ZM92.2792 71.6252C91.1029 71.6265 89.9752 72.0944 89.1434 72.9261C88.3117 73.7579 87.8439 74.8856 87.8426 76.0618V129.842C87.844 131.019 88.3119 132.146 89.1437 132.978C89.9754 133.809 91.103 134.277 92.2792 134.278H128.067C129.243 134.277 130.371 133.809 131.203 132.978C132.034 132.146 132.502 131.019 132.504 129.842V76.0618C132.502 74.8856 132.035 73.7579 131.203 72.9261C130.371 72.0944 129.243 71.6265 128.067 71.6252H92.2792Z" fill="#1F2024"/>
<path d="M120.821 84.3186H99.5259C98.8983 84.3186 98.2965 84.0693 97.8527 83.6255C97.409 83.1818 97.1597 82.5799 97.1597 81.9524C97.1597 81.3248 97.409 80.723 97.8527 80.2792C98.2965 79.8355 98.8983 79.5862 99.5259 79.5862H120.821C121.449 79.5862 122.051 79.8355 122.494 80.2792C122.938 80.723 123.187 81.3248 123.187 81.9524C123.187 82.5799 122.938 83.1818 122.494 83.6255C122.051 84.0693 121.449 84.3186 120.821 84.3186Z" fill="#CCCCCC"/>
<path d="M120.821 93.1918H99.5259C98.8983 93.1918 98.2965 92.9425 97.8527 92.4988C97.409 92.055 97.1597 91.4532 97.1597 90.8256C97.1597 90.1981 97.409 89.5962 97.8527 89.1525C98.2965 88.7087 98.8983 88.4594 99.5259 88.4594H120.821C121.449 88.4594 122.051 88.7087 122.494 89.1525C122.938 89.5962 123.187 90.1981 123.187 90.8256C123.187 91.4532 122.938 92.055 122.494 92.4988C122.051 92.9425 121.449 93.1918 120.821 93.1918Z" fill="#CCCCCC"/>
<path d="M122.596 115.818H97.7512C97.0848 115.817 96.4458 115.552 95.9746 115.081C95.5033 114.61 95.2382 113.971 95.2373 113.304V101.473C95.2382 100.807 95.5033 100.168 95.9746 99.6965C96.4458 99.2252 97.0848 98.9601 97.7512 98.9592H122.596C123.262 98.9601 123.901 99.2252 124.372 99.6965C124.844 100.168 125.109 100.807 125.11 101.473V113.304C125.109 113.97 124.844 114.609 124.372 115.081C123.901 115.552 123.262 115.817 122.596 115.818Z" fill="#E6E6E6"/>
<path d="M120.821 126.318H99.5259C98.8983 126.318 98.2965 126.069 97.8527 125.625C97.409 125.181 97.1597 124.579 97.1597 123.952C97.1597 123.324 97.409 122.722 97.8527 122.278C98.2965 121.835 98.8983 121.585 99.5259 121.585H120.821C121.449 121.585 122.051 121.835 122.494 122.278C122.938 122.722 123.187 123.324 123.187 123.952C123.187 124.579 122.938 125.181 122.494 125.625C122.051 126.069 121.449 126.318 120.821 126.318Z" fill="#CCCCCC"/>
<path d="M106.181 49.3933H70.3926C69.0594 49.3917 67.7813 48.8614 66.8387 47.9186C65.8961 46.9758 65.366 45.6976 65.3647 44.3645V10.9932C65.3662 9.66015 65.8964 8.38212 66.839 7.43948C67.7815 6.49684 69.0595 5.96659 70.3926 5.96504H106.181C107.514 5.9665 108.792 6.49672 109.734 7.43936C110.677 8.38201 111.207 9.6601 111.209 10.9932V44.3645C111.207 45.6977 110.677 46.9759 109.735 47.9187C108.792 48.8615 107.514 49.3918 106.181 49.3933ZM70.3926 6.55659C69.2163 6.55788 68.0886 7.02571 67.2568 7.85746C66.4251 8.68921 65.9573 9.81693 65.956 10.9932V44.3645C65.9568 45.541 66.4245 46.6692 67.2563 47.5013C68.0881 48.3333 69.216 48.8014 70.3926 48.8027H106.181C107.357 48.8014 108.485 48.3333 109.317 47.5013C110.149 46.6692 110.616 45.541 110.617 44.3645V10.9932C110.616 9.81693 110.148 8.68921 109.316 7.85746C108.485 7.02571 107.357 6.55788 106.181 6.55659H70.3926Z" fill="#1F2024"/>
<path d="M98.9347 38.9184H77.6393C77.0117 38.9184 76.4099 38.6691 75.9661 38.2254C75.5224 37.7816 75.2731 37.1798 75.2731 36.5522C75.2731 35.9247 75.5224 35.3228 75.9661 34.8791C76.4099 34.4353 77.0117 34.186 77.6393 34.186H98.9347C99.5622 34.186 100.164 34.4353 100.608 34.8791C101.052 35.3228 101.301 35.9247 101.301 36.5522C101.301 37.1798 101.052 37.7816 100.608 38.2254C100.164 38.6691 99.5622 38.9184 98.9347 38.9184Z" fill="#CCCCCC"/>
<path d="M98.9347 30.0452H77.6393C77.0117 30.0452 76.4099 29.7959 75.9661 29.3521C75.5224 28.9084 75.2731 28.3066 75.2731 27.679C75.2731 27.0514 75.5224 26.4496 75.9661 26.0058C76.4099 25.5621 77.0117 25.3128 77.6393 25.3128H98.9347C99.2454 25.3128 99.5531 25.374 99.8402 25.4929C100.127 25.6118 100.388 25.7861 100.608 26.0058C100.828 26.2256 101.002 26.4864 101.121 26.7735C101.24 27.0606 101.301 27.3683 101.301 27.679C101.301 27.9897 101.24 28.2974 101.121 28.5845C101.002 28.8716 100.828 29.1324 100.608 29.3521C100.388 29.5719 100.127 29.7462 99.8402 29.8651C99.5531 29.984 99.2454 30.0452 98.9347 30.0452Z" fill="#CCCCCC"/>
<path d="M98.9347 21.1723H77.6393C77.0117 21.1723 76.4099 20.923 75.9661 20.4793C75.5224 20.0355 75.2731 19.4337 75.2731 18.8061C75.2731 18.1786 75.5224 17.5767 75.9661 17.133C76.4099 16.6892 77.0117 16.4399 77.6393 16.4399H98.9347C99.5622 16.4399 100.164 16.6892 100.608 17.133C101.052 17.5767 101.301 18.1786 101.301 18.8061C101.301 19.4337 101.052 20.0355 100.608 20.4793C100.164 20.923 99.5622 21.1723 98.9347 21.1723Z" fill="#CCCCCC"/>
<path d="M42.8863 49.0975C46.6434 49.0975 49.6891 46.0518 49.6891 42.2947C49.6891 38.5376 46.6434 35.4919 42.8863 35.4919C39.1292 35.4919 36.0835 38.5376 36.0835 42.2947C36.0835 46.0518 39.1292 49.0975 42.8863 49.0975Z" fill="#006FFD"/>
<path d="M42.2121 44.8899C42.0591 44.8902 41.9102 44.8408 41.7877 44.749L41.7803 44.7432L40.1815 43.5193C40.032 43.4047 39.9341 43.2354 39.9093 43.0487C39.8846 42.8619 39.9351 42.673 40.0497 42.5234C40.1642 42.3739 40.3335 42.276 40.5203 42.2512C40.707 42.2265 40.896 42.277 41.0455 42.3916L42.0822 43.1856L44.5294 39.9943C44.5861 39.9202 44.6569 39.8581 44.7376 39.8114C44.8184 39.7647 44.9076 39.7344 45 39.7222C45.0925 39.71 45.1865 39.7161 45.2766 39.7402C45.3667 39.7643 45.4512 39.806 45.5252 39.8628L45.51 39.8835L45.5255 39.8631C45.6748 39.9778 45.7725 40.1471 45.7972 40.3338C45.8219 40.5205 45.7715 40.7093 45.6571 40.8589L42.7771 44.6139C42.7105 44.7004 42.6249 44.7704 42.5269 44.8185C42.429 44.8666 42.3212 44.8915 42.2121 44.8912V44.8899Z" fill="white"/>
<path d="M131.617 79.5616C135.374 79.5616 138.42 76.5159 138.42 72.7588C138.42 69.0017 135.374 65.956 131.617 65.956C127.86 65.956 124.814 69.0017 124.814 72.7588C124.814 76.5159 127.86 79.5616 131.617 79.5616Z" fill="#1F2024"/>
<path d="M130.942 75.354C130.789 75.3543 130.64 75.3048 130.518 75.2131L130.51 75.2073L128.912 73.9833C128.762 73.8688 128.664 73.6995 128.64 73.5127C128.615 73.326 128.665 73.137 128.78 72.9875C128.894 72.8379 129.064 72.74 129.251 72.7153C129.437 72.6906 129.626 72.7411 129.776 72.8556L130.812 73.6497L133.26 70.4584C133.316 70.3843 133.387 70.3222 133.468 70.2755C133.549 70.2288 133.638 70.1985 133.73 70.1863C133.823 70.1741 133.917 70.1802 134.007 70.2043C134.097 70.2284 134.181 70.2701 134.255 70.3268L134.24 70.3476L134.256 70.3271C134.405 70.4419 134.503 70.6112 134.527 70.7979C134.552 70.9846 134.502 71.1734 134.387 71.323L131.507 75.078C131.441 75.1643 131.355 75.234 131.257 75.2819C131.159 75.3298 131.051 75.3545 130.942 75.354Z" fill="white"/>
<path d="M110.026 13.6056C113.783 13.6056 116.829 10.5599 116.829 6.8028C116.829 3.04572 113.783 0 110.026 0C106.269 0 103.223 3.04572 103.223 6.8028C103.223 10.5599 106.269 13.6056 110.026 13.6056Z" fill="#1F2024"/>
<path d="M109.351 9.39771C109.198 9.39799 109.05 9.34853 108.927 9.25678L108.92 9.25095L107.321 8.02704C107.171 7.91246 107.073 7.74318 107.049 7.55642C107.024 7.36967 107.074 7.18073 107.189 7.03119C107.304 6.88165 107.473 6.78375 107.66 6.75902C107.846 6.73429 108.035 6.78476 108.185 6.89934L109.222 7.69336L111.669 4.50205C111.725 4.428 111.796 4.36587 111.877 4.31918C111.958 4.2725 112.047 4.24218 112.139 4.22997C112.232 4.21775 112.326 4.22388 112.416 4.248C112.506 4.27211 112.591 4.31374 112.665 4.37052L112.649 4.39126L112.665 4.37084C112.814 4.48559 112.912 4.65488 112.937 4.84157C112.961 5.02826 112.911 5.21712 112.796 5.36669L109.916 9.12169C109.85 9.20797 109.764 9.27774 109.666 9.32561C109.568 9.37347 109.461 9.39814 109.351 9.39771Z" fill="white"/>
</g>
<defs>
<clipPath id="clip0_8_5612">
<rect width="311" height="242.206" fill="white"/>
</clipPath>
</defs>
</svg>
