<svg width="247" height="365" viewBox="0 0 247 365" fill="none" xmlns="http://www.w3.org/2000/svg">
<g clip-path="url(#clip0_8_5947)">
<path d="M215.879 364.406H100.168C83.0084 364.406 69.0478 350.446 69.0478 333.286V31.1207C69.0478 13.9606 83.0084 0 100.168 0H215.879C233.039 0 247 13.9606 247 31.1207V333.286C247 350.446 233.039 364.406 215.879 364.406ZM100.168 1.19833C83.6675 1.19833 70.2462 14.6196 70.2462 31.1207V333.286C70.2462 349.787 83.6675 363.208 100.168 363.208H215.879C232.38 363.208 245.802 349.787 245.802 333.286V31.1207C245.802 14.6196 232.38 1.19833 215.879 1.19833H100.168Z" fill="#DEDFE0"/>
<path d="M174.411 28.3765H141.643C137.317 28.3765 133.8 24.8594 133.8 20.5334C133.8 16.2074 137.317 12.6903 141.643 12.6903H174.411C178.737 12.6903 182.254 16.2074 182.254 20.5334C182.254 24.8594 178.737 28.3765 174.411 28.3765Z" fill="#DADBDC"/>
<path d="M128.869 363.777C128.869 364.101 128.605 364.365 128.281 364.365H0.587182C0.263633 364.365 0 364.101 0 363.777C0 363.454 0.263633 363.19 0.587182 363.19H128.281C128.605 363.19 128.869 363.454 128.869 363.777Z" fill="#3F3D58"/>
<path d="M71.3966 182.212L83.1702 186.083V169.138H72.4871L71.3966 182.212Z" fill="#F6AAAE"/>
<path d="M81.7082 173.83C88.1874 173.83 93.4399 168.577 93.4399 162.098C93.4399 155.619 88.1874 150.367 81.7082 150.367C75.229 150.367 69.9765 155.619 69.9765 162.098C69.9765 168.577 75.229 173.83 81.7082 173.83Z" fill="#F6AAAE"/>
<path d="M78.7244 163.015L80.3421 164.98L83.266 159.863C83.266 159.863 86.9988 160.055 86.9988 157.287C86.9988 154.519 90.4261 154.441 90.4261 154.441C90.4261 154.441 95.2733 145.975 85.2313 148.204C85.2313 148.204 78.263 143.428 74.7998 147.509C74.7998 147.509 64.1766 152.859 67.2144 162.176L72.2654 171.775L73.4098 169.6C73.4098 169.6 72.7147 160.475 78.7244 163.015Z" fill="#2F2E43"/>
<path d="M77.6339 342.777H68.1551V356.222H77.6339V342.777Z" fill="#F6AAAE"/>
<path d="M76.5913 363.927C74.9676 364.077 66.8609 364.712 66.4535 362.855C66.082 361.147 66.6272 359.362 66.7051 359.122C67.484 351.369 67.7716 351.279 67.9454 351.225C68.221 351.147 69.0299 351.524 70.336 352.369L70.4199 352.423L70.4379 352.519C70.4619 352.639 71.0431 355.485 73.7872 355.054C75.6686 354.754 76.2798 354.341 76.4775 354.137C76.3157 354.065 76.118 353.939 75.9802 353.717C75.7765 353.4 75.7405 352.992 75.8723 352.507C76.2258 351.219 77.2864 349.313 77.3283 349.236L77.4481 349.02L88.2211 356.288L94.8719 358.187C95.3752 358.331 95.7766 358.69 95.9803 359.17C96.2619 359.841 96.0882 360.62 95.5489 361.105C94.3386 362.19 91.942 364.053 89.4195 364.281C88.7484 364.341 87.8616 364.365 86.867 364.365C82.7028 364.365 76.6333 363.933 76.5854 363.927L76.5913 363.927Z" fill="#2F2E43"/>
<path d="M48.0692 322.585L39.4989 332.945L46.8024 338.987L55.3728 328.627L48.0692 322.585Z" fill="#F6AAAE"/>
<path d="M41.0968 344.269C39.7546 343.346 33.0979 338.672 33.9667 336.983C34.7696 335.431 36.3274 334.406 36.5431 334.268C42.0854 328.792 42.367 328.906 42.5348 328.978C42.7984 329.092 43.1759 329.901 43.6492 331.38L43.6792 331.47L43.6312 331.554C43.5713 331.662 42.2052 334.227 44.5959 335.641C46.2376 336.611 46.9746 336.677 47.2502 336.647C47.1723 336.491 47.1004 336.264 47.1304 336.006C47.1723 335.635 47.406 335.293 47.8254 335.005C48.9219 334.239 50.947 333.448 51.0369 333.412L51.2646 333.322L54.9315 345.79L58.844 351.495C59.1376 351.926 59.2215 352.459 59.0717 352.962C58.862 353.657 58.2329 354.149 57.5019 354.179C55.8782 354.245 52.8464 354.149 50.7553 352.717C50.2041 352.339 49.5031 351.794 48.7361 351.159C45.5306 348.505 41.1267 344.305 41.0908 344.269L41.0968 344.269Z" fill="#2F2E43"/>
<path d="M93.3141 239.079H60.8033L68.0293 346.545H78.8682L93.3201 239.079L93.3141 239.079Z" fill="#2F2E43"/>
<path d="M86.6933 244.999L93.3141 239.079L90.0007 298.181L52.9722 333.4L43.7451 325.772L65.315 297.779L86.6933 244.999Z" fill="#2F2E43"/>
<path d="M86.6933 175.861L70.6356 173.255L65.6506 181.973C59.3114 193.057 56.729 205.891 58.2808 218.564L60.8033 239.085H93.314L86.6933 175.867L86.6933 175.861Z" fill="#DADBDC"/>
<path d="M73.6554 258.426C74.3205 261.739 73.0802 264.765 70.8933 265.185C68.7003 265.598 66.3876 263.249 65.7225 259.93C65.4409 258.606 65.4888 257.24 65.8663 255.94L63.2299 241.853L70.1204 240.781L71.9838 254.783C72.8346 255.856 73.4098 257.102 73.6554 258.432V258.426Z" fill="#F6AAAE"/>
<path d="M65.2731 254.609L55.1532 223.345V223.297L58.9759 191.104C59.5631 186.173 63.7452 182.458 68.7063 182.458C71.7441 182.458 74.5602 183.83 76.4296 186.227C78.299 188.623 78.9521 191.685 78.2151 194.639L71.4625 221.643L73.0742 252.291L65.2671 254.609L65.2731 254.609Z" fill="#DADBDC"/>
<path d="M123.17 185.915C125.981 200.924 140.426 210.816 155.442 208C159.983 207.15 164.058 205.232 167.449 202.554L201.601 239.391C203.692 241.643 207.257 241.637 209.342 239.373C211.29 237.258 211.182 233.974 209.097 231.991L172.608 197.215C176.994 191.26 178.995 183.572 177.527 175.729C174.717 160.72 160.271 150.828 145.256 153.644C130.241 156.46 120.354 170.9 123.17 185.915ZM129.066 184.813C126.867 173.057 134.609 161.745 146.364 159.546C158.12 157.347 169.432 165.088 171.631 176.844C173.83 188.599 166.089 199.912 154.333 202.111C142.577 204.309 131.265 196.568 129.066 184.813Z" fill="#006FFD"/>
</g>
<defs>
<clipPath id="clip0_8_5947">
<rect width="247" height="364.406" fill="white"/>
</clipPath>
</defs>
</svg>
